#N canvas 523 232 263 297 10;
#X declare -lib mrpeach;
#X obj 118 33 import mrpeach;
#X obj 118 77 unpackOSC;
#X obj 52 33 loadbang;
#X msg 52 86 \; pd dsp 1;
#X obj 150 273 dac~;
#X obj 118 55 udpreceive 5555;
#X obj 149 238 *~;
#X obj 196 257 *~;
#X obj 72 197 phasor~;
#X obj 66 220 expr~ $v1>$v2;
#X obj 187 231 osc~;
#X obj 118 134 unpack f f f f f;
#X obj 118 112 routeOSC /sk/dat;
#X text 115 9 poke it out;
#X connect 1 0 12 0;
#X connect 2 0 3 0;
#X connect 5 0 1 0;
#X connect 6 0 4 0;
#X connect 7 0 4 1;
#X connect 8 0 9 0;
#X connect 9 0 6 0;
#X connect 10 0 7 0;
#X connect 11 0 8 0;
#X connect 11 1 9 1;
#X connect 11 2 6 1;
#X connect 11 3 10 0;
#X connect 11 4 7 1;
#X connect 12 0 11 0;
